<?xml version="1.0" encoding="utf-8"?>
<!-- Generator: Adobe Illustrator 16.0.0, SVG Export Plug-In . SVG Version: 6.00 Build 0)  -->
<!DOCTYPE svg PUBLIC "-//W3C//DTD SVG 1.1//EN" "http://www.w3.org/Graphics/SVG/1.1/DTD/svg11.dtd">
<svg version="1.1" id="Layer_1" xmlns="http://www.w3.org/2000/svg" xmlns:xlink="http://www.w3.org/1999/xlink" x="0px" y="0px"
	 width="122.453px" height="54px" viewBox="0 0 122.453 54" enable-background="new 0 0 122.453 54" xml:space="preserve">
<g>
	<g>
		<path fill="#333333" d="M77.006,48.482c-0.694,0.293-1.412,0.596-2.134,0.596l-0.111-0.002c-0.742,0-1.986-0.24-1.986-1.844
			v-8.293h4.749v-4.816h-4.749v-4.357h-5.421v4.357H59.98l-3.362,5.076l-3.264-5.076h-6.629l6.349,9l-6.781,9.641v-4.68h-1.153
			l-0.108,0.064c-1.176,0.701-2.703,1.061-4.668,1.105l-0.204,0.002c-2.024,0-4.31-0.842-4.956-3.158h12.031l0.014-0.445
			c0.081-2.564-0.05-4.73-0.957-6.959c-1.345-3.199-4.113-4.959-7.795-4.959c-2.852,0-5.334,1.195-6.999,3.379
			c-1.667,2.309-2.085,4.996-2.143,6.859c0,3.121,1.004,5.619,2.984,7.428c1.842,1.676,4.569,2.6,7.681,2.6
			c2.319,0,4.041-0.232,5.943-0.799l0.025-0.008l-0.292,0.416h6.059l4.286-6.494l4.218,6.494h6.631l-7.343-10.346l5.786-8.242v3.918
			h2.019v7.727c0,4.797,2.378,7.334,6.875,7.334c1.509,0,2.692-0.365,4.082-0.84l0.312-0.107v-4.721h-1.26L77.006,48.482z
			 M38.566,38.551c1.769,0.029,2.821,1.006,3.133,2.906h-6.493C35.509,39.973,36.516,38.553,38.566,38.551z M7.941,9
			c0-1.001,0.883-1.824,1.883-1.824h19.825V0H8C3.588,0,0,3.588,0,7.939v22.691l7.941-3.195V9z M44.493,18.402
			c0-6.061-3.73-10.133-9.283-10.133c-5.595,0-9.354,4.072-9.354,10.133c0,6.062,3.759,10.133,9.354,10.133
			C40.763,28.535,44.493,24.464,44.493,18.402z M31.417,18.402c0-3.164,1.475-5.209,3.758-5.209c2.282,0,3.757,2.045,3.757,5.209
			c0,3.215-1.44,5.21-3.757,5.21C32.892,23.612,31.417,21.567,31.417,18.402z M52.534,28.535c1.486,0,2.517-0.354,3.822-0.799
			l0.429-0.146v-4.758H55.65l-0.097,0.049c-0.872,0.436-1.599,0.77-2.375,0.77l-0.114-0.003c-1.317,0-1.985-0.584-1.985-1.737V1.289
			h-5.42v19.842C45.66,25.976,48.036,28.535,52.534,28.535z M66.425,28.535h3.013c2.716,0,4.925-2.225,4.925-4.959V1.254h-5.419
			v7.62c-1.122-0.523-2.193-0.604-3.12-0.604c-2.716,0-5.142,1.076-6.848,3.047c-1.731,2.227-2.022,4.797-2.082,6.803
			c0,2.366,0.511,4.516,1.484,6.225C60.004,27.044,62.708,28.455,66.425,28.535z M63.235,14.679c0.597-0.948,1.53-1.407,3.025-1.485
			c0.917,0.001,1.771,0.16,2.683,0.366v9.485c0,0.303-0.283,0.567-0.604,0.567h-1.488c-1.473,0-2.556-0.335-3.214-0.994
			c-1.027-1.06-1.146-3.075-1.146-4.512C62.453,16.76,62.719,15.541,63.235,14.679z M77.558,28.145h5.42V8.659h-5.42V28.145z
			 M77.558,7.771h5.456v-5.35h-5.456V7.771z M96.072,8.27c-1.787,0-3.534,0.65-4.962,1.32V8.659h-5.278v19.485h5.42V14.646
			c1.227-0.779,2.896-1.312,4.147-1.312c0.701,0,1.255,0.205,1.65,0.606c0.464,0.474,0.708,1.236,0.689,2.159v12.045h5.419V15.639
			C103.158,11.301,100.244,8.27,96.072,8.27z M117.422,8.27h-2.875c-3.771,0.041-6.613,1.491-8.224,4.195
			c-0.981,1.67-1.48,3.775-1.48,6.257c0,2.786,0.682,4.999,2.102,6.79c1.737,1.949,4.212,3.023,6.97,3.023
			c1.154,0,2.199-0.2,3.119-0.599v0.317c0,2-1.95,3.508-4.516,3.508c-1.375-0.061-3.345-0.369-4.746-1.051l-0.095-0.047h-1.133
			v4.678l0.302,0.111c2.075,0.758,3.66,1.197,5.616,1.197h0.002c6.722-0.039,9.989-3.271,9.989-9.886V13.266
			C122.453,10.558,120.149,8.27,117.422,8.27z M117.033,23.395c-0.905,0.213-1.866,0.324-2.8,0.324c-1.41,0-2.356-0.461-2.988-1.467
			c-0.731-1.061-0.841-2.667-0.841-3.521c0.036-1.628,0.162-3.45,1.206-4.462c0.751-0.725,1.807-1.076,3.225-1.076h1.596
			c0.297,0,0.603,0.238,0.603,0.639V23.395z M14.056,18.732l2.402,7.166L0,32.729l0,0.764h0v20.117h7.941V37.761l11.042-4.333
			l2.458,7.334l6.805-2.281l-7.385-22.028L14.056,18.732z"/>
	</g>
</g>
</svg>
